<svg width="143" height="37" viewBox="0 0 143 37" fill="none" xmlns="http://www.w3.org/2000/svg">
<path d="M44.4126 30.1283L39.2825 29.9487C39.2825 29.2647 39.2825 28.3755 39.2825 27.2811C39.2996 26.1866 39.3082 24.9896 39.3082 23.69C39.3253 22.3904 39.3424 21.0651 39.3595 19.7142C39.3766 18.3633 39.3937 17.0893 39.4108 15.8923C39.4279 14.6782 39.445 13.6179 39.4621 12.7116C39.4792 11.8053 39.4963 11.1555 39.5134 10.7622C40.6762 10.7622 41.9074 10.7537 43.207 10.7366C44.5066 10.7195 45.7721 10.7024 47.0033 10.6853C48.2516 10.6511 49.3888 10.6254 50.4148 10.6083C51.4408 10.5741 52.2616 10.5399 52.8772 10.5057L52.7746 13.0194L44.1048 12.6603C44.1732 14.4901 44.2245 16.3027 44.2587 18.0982L52.4925 17.8417L52.3129 20.612L44.31 20.1502C44.3784 23.6045 44.4126 26.9305 44.4126 30.1283ZM54.9639 13.9685V10.5057H59.3245V13.9685H54.9639ZM55.0665 30.0513C55.0494 29.487 55.0323 28.726 55.0152 27.7684C54.9981 26.7937 54.981 25.6822 54.9639 24.4339C54.9639 23.1684 54.9554 21.8175 54.9383 20.3811C54.9383 18.9447 54.9383 17.4741 54.9383 15.9692C55.7078 15.9692 56.5115 15.9778 57.3494 15.9949C58.2044 16.012 58.8713 16.0376 59.3501 16.0718C59.3501 17.3202 59.3416 18.6283 59.3245 19.9963C59.3245 21.3644 59.3159 22.6982 59.2988 23.9978C59.2988 25.2803 59.2903 26.4431 59.2732 27.4863C59.2561 28.5294 59.239 29.3502 59.2219 29.9487C58.4353 29.9829 57.6829 30.0086 56.9647 30.0257C56.2464 30.0428 55.6137 30.0513 55.0665 30.0513ZM66.5894 10.5827C66.5552 11.5574 66.5295 12.515 66.5124 13.4555C66.4953 14.396 66.4868 15.2681 66.4868 16.0718C66.4868 18.7737 66.5637 20.9882 66.7176 22.7153C66.8886 24.4253 67.1451 25.742 67.4871 26.6654C67.8291 27.5718 68.2823 28.1703 68.8466 28.461L67.0511 30.513C66.1277 30.4104 65.3496 30.1112 64.7169 29.6152C64.1013 29.1022 63.6054 28.3413 63.2292 27.3324C62.853 26.3063 62.5794 24.9811 62.4084 23.3565C62.2545 21.732 62.1775 19.7484 62.1775 17.4057C62.1775 16.4309 62.186 15.3707 62.2031 14.225C62.2374 13.0622 62.2716 11.8823 62.3058 10.6853C62.8017 10.6511 63.3916 10.6254 64.0756 10.6083C64.7596 10.5912 65.5976 10.5827 66.5894 10.5827ZM77.191 30.1283C75.8059 30.1283 74.5576 29.8119 73.446 29.1792C72.3516 28.5294 71.4795 27.6573 70.8297 26.5628C70.197 25.4513 69.8806 24.1945 69.8806 22.7922C69.8806 21.39 70.1884 20.1417 70.804 19.0473C71.4368 17.9529 72.2918 17.0893 73.3691 16.4566C74.4635 15.8239 75.7033 15.5075 77.0884 15.5075C78.388 15.5075 79.5508 15.7982 80.5768 16.3796C81.62 16.9439 82.4579 17.7391 83.0906 18.7651C83.7404 19.7911 84.1252 20.9967 84.2449 22.3818L74.0616 24.28C74.3866 25.3915 74.8996 26.2978 75.6007 26.9989C76.3018 27.6829 77.0884 28.0249 77.9605 28.0249C78.7642 28.0249 79.5594 27.7513 80.346 27.2041C81.1326 26.6398 81.7397 25.9216 82.1672 25.0495L83.9883 26.5885C83.1504 27.7171 82.1415 28.5892 80.9616 29.2048C79.7817 29.8204 78.5248 30.1283 77.191 30.1283ZM73.7282 21.7662C73.7282 21.8688 73.7282 21.9543 73.7282 22.0227L79.7047 21.2019C79.585 20.1075 79.2345 19.2268 78.6531 18.5599C78.0717 17.893 77.362 17.5596 76.5241 17.5596C75.652 17.5596 74.968 17.9358 74.4721 18.6882C73.9761 19.4235 73.7282 20.4495 73.7282 21.7662ZM86.2999 30.0513C86.2999 28.2558 86.2999 26.4431 86.2999 24.6134C86.317 22.7837 86.3255 21.0138 86.3255 19.3038C86.3426 17.5938 86.3597 16.0034 86.3768 14.5328C86.411 13.0451 86.4452 11.7369 86.4794 10.6083C87.4713 10.6083 88.3092 10.6169 88.9932 10.634C89.6943 10.6511 90.3184 10.6767 90.8657 10.7109C90.8657 13.6692 90.8828 16.4737 90.917 19.1242C93.2426 19.1071 95.5939 19.0216 97.9708 18.8677C97.9708 17.6023 97.9708 16.2856 97.9708 14.9176C97.9708 13.5495 97.9708 12.1473 97.9708 10.7109C99.4585 10.6083 100.963 10.557 102.485 10.557C102.537 11.9763 102.579 13.5324 102.614 15.2254C102.648 16.9012 102.665 18.6198 102.665 20.3811C102.682 22.1424 102.69 23.8525 102.69 25.5112C102.708 27.1699 102.716 28.6833 102.716 30.0513C101.827 30.0513 100.98 30.0428 100.177 30.0257C99.3901 30.0086 98.6035 29.9829 97.8169 29.9487C97.8511 29.0253 97.8768 27.8454 97.8939 26.4089C97.911 24.9554 97.9281 23.3309 97.9452 21.5354C96.3548 21.5354 94.9954 21.5268 93.8668 21.5097C92.7552 21.4755 91.7805 21.4328 90.9426 21.3815C90.9939 24.545 91.0709 27.4008 91.1735 29.9487C90.4211 29.9829 89.6515 30.0086 88.8649 30.0257C88.0783 30.0428 87.2233 30.0513 86.2999 30.0513ZM105.814 13.9685V10.5057H110.174V13.9685H105.814ZM105.916 30.0513C105.899 29.487 105.882 28.726 105.865 27.7684C105.848 26.7937 105.831 25.6822 105.814 24.4339C105.814 23.1684 105.805 21.8175 105.788 20.3811C105.788 18.9447 105.788 17.4741 105.788 15.9692C106.558 15.9692 107.361 15.9778 108.199 15.9949C109.054 16.012 109.721 16.0376 110.2 16.0718C110.2 17.3202 110.191 18.6283 110.174 19.9963C110.174 21.3644 110.166 22.6982 110.149 23.9978C110.149 25.2803 110.14 26.4431 110.123 27.4863C110.106 28.5294 110.089 29.3502 110.072 29.9487C109.285 29.9829 108.533 30.0086 107.815 30.0257C107.096 30.0428 106.464 30.0513 105.916 30.0513ZM117.42 30.2309C116.445 27.9736 115.462 25.6138 114.47 23.1513C113.495 20.6889 112.589 18.3205 111.751 16.0462C112.777 15.8923 113.717 15.7726 114.572 15.6871C115.427 15.5845 116.163 15.5161 116.778 15.4819C117.274 17.3287 117.847 19.2439 118.497 21.2276C119.147 23.1941 119.848 25.1435 120.6 27.0759C121.37 25.1948 122.079 23.271 122.729 21.3045C123.379 19.338 123.943 17.4313 124.422 15.5845L127.141 15.9436C126.252 18.4231 125.328 20.8599 124.371 23.2539C123.413 25.6309 122.447 27.8881 121.472 30.0257C120.823 30.0941 120.139 30.1454 119.42 30.1796C118.719 30.2138 118.052 30.2309 117.42 30.2309ZM134.704 30.1283C133.319 30.1283 132.071 29.8119 130.959 29.1792C129.865 28.5294 128.992 27.6573 128.343 26.5628C127.71 25.4513 127.394 24.1945 127.394 22.7922C127.394 21.39 127.701 20.1417 128.317 19.0473C128.95 17.9529 129.805 17.0893 130.882 16.4566C131.976 15.8239 133.216 15.5075 134.601 15.5075C135.901 15.5075 137.064 15.7982 138.09 16.3796C139.133 16.9439 139.971 17.7391 140.604 18.7651C141.253 19.7911 141.638 20.9967 141.758 22.3818L131.575 24.28C131.9 25.3915 132.413 26.2978 133.114 26.9989C133.815 27.6829 134.601 28.0249 135.473 28.0249C136.277 28.0249 137.072 27.7513 137.859 27.2041C138.646 26.6398 139.253 25.9216 139.68 25.0495L141.501 26.5885C140.663 27.7171 139.655 28.5892 138.475 29.2048C137.295 29.8204 136.038 30.1283 134.704 30.1283ZM131.241 21.7662C131.241 21.8688 131.241 21.9543 131.241 22.0227L137.218 21.2019C137.098 20.1075 136.747 19.2268 136.166 18.5599C135.585 17.893 134.875 17.5596 134.037 17.5596C133.165 17.5596 132.481 17.9358 131.985 18.6882C131.489 19.4235 131.241 20.4495 131.241 21.7662Z" fill="#F5D75E"/>
<path d="M21.75 24.25V16.75H23.8125L26.25 19.1875V24.25H21.75ZM30 25L28.5 26.5V18.25L24.75 14.5L30 13V25ZM6 31C5.175 31 4.4685 30.706 3.8805 30.118C3.2925 29.53 2.999 28.824 3 28V10C3 9.175 3.294 8.4685 3.882 7.8805C4.47 7.2925 5.176 6.999 6 7H15L18 10H30C30.825 10 31.5315 10.294 32.1195 10.882C32.7075 11.47 33.001 12.176 33 13V28C33 28.825 32.706 29.5315 32.118 30.1195C31.53 30.7075 30.824 31.001 30 31H6Z" fill="#F5D75E"/>
</svg>
