<svg width="103" height="21" viewBox="0 0 103 21" fill="none" xmlns="http://www.w3.org/2000/svg">
<path d="M5.4126 20.1283L0.28252 19.9487C0.28252 19.2647 0.28252 18.3755 0.28252 17.2811C0.29962 16.1866 0.30817 14.9896 0.30817 13.69C0.32527 12.3904 0.342371 11.0651 0.359471 9.71419C0.376571 8.36327 0.393671 7.0893 0.410772 5.89228C0.427872 4.67816 0.444972 3.61795 0.462072 2.71163C0.479173 1.80532 0.496273 1.15551 0.513373 0.762204C1.67619 0.762204 2.90741 0.753654 4.20703 0.736554C5.50665 0.719454 6.77207 0.702354 8.00329 0.685254C9.25161 0.651053 10.3888 0.625402 11.4148 0.608302C12.4408 0.574102 13.2616 0.539901 13.8772 0.5057L13.7746 3.01944L5.10479 2.66033C5.17319 4.49006 5.2245 6.30269 5.2587 8.09822L13.4925 7.84171L13.3129 10.612L5.31 10.1502C5.3784 13.6045 5.4126 16.9305 5.4126 20.1283ZM15.9639 3.9685V0.5057H20.3245V3.9685H15.9639ZM16.0665 20.0513C16.0494 19.487 16.0323 18.726 16.0152 17.7684C15.9981 16.7937 15.981 15.6822 15.9639 14.4339C15.9639 13.1684 15.9554 11.8175 15.9383 10.3811C15.9383 8.94468 15.9383 7.47406 15.9383 5.96923C16.7078 5.96923 17.5115 5.97778 18.3494 5.99489C19.2044 6.01199 19.8713 6.03764 20.3501 6.07184C20.3501 7.32016 20.3416 8.62833 20.3245 9.99635C20.3245 11.3644 20.3159 12.6982 20.2988 13.9978C20.2988 15.2803 20.2903 16.4431 20.2732 17.4863C20.2561 18.5294 20.239 19.3502 20.2219 19.9487C19.4353 19.9829 18.6829 20.0086 17.9647 20.0257C17.2464 20.0428 16.6137 20.0513 16.0665 20.0513ZM27.5894 0.582652C27.5552 1.55737 27.5295 2.51498 27.5124 3.4555C27.4953 4.39601 27.4868 5.26812 27.4868 6.07184C27.4868 8.77368 27.5637 10.9882 27.7176 12.7153C27.8886 14.4253 28.1451 15.742 28.4871 16.6654C28.8291 17.5718 29.2823 18.1703 29.8466 18.461L28.0511 20.513C27.1277 20.4104 26.3496 20.1112 25.7169 19.6152C25.1013 19.1022 24.6054 18.3413 24.2292 17.3324C23.853 16.3063 23.5794 14.9811 23.4084 13.3565C23.2545 11.732 23.1775 9.74839 23.1775 7.40566C23.1775 6.43094 23.186 5.37073 23.2031 4.22501C23.2374 3.06219 23.2716 1.88227 23.3058 0.685254C23.8017 0.651053 24.3916 0.625402 25.0756 0.608302C25.7596 0.591202 26.5976 0.582652 27.5894 0.582652ZM38.191 20.1283C36.8059 20.1283 35.5576 19.8119 34.446 19.1792C33.3516 18.5294 32.4795 17.6573 31.8297 16.5628C31.197 15.4513 30.8806 14.1945 30.8806 12.7922C30.8806 11.39 31.1884 10.1417 31.804 9.04728C32.4368 7.95287 33.2918 7.0893 34.3691 6.45659C35.4635 5.82388 36.7033 5.50753 38.0884 5.50753C39.388 5.50753 40.5508 5.79823 41.5768 6.37964C42.62 6.94395 43.4579 7.73911 44.0906 8.76513C44.7404 9.79114 45.1252 10.9967 45.2449 12.3818L35.0616 14.28C35.3866 15.3915 35.8996 16.2978 36.6007 16.9989C37.3018 17.6829 38.0884 18.0249 38.9605 18.0249C39.7642 18.0249 40.5594 17.7513 41.346 17.2041C42.1326 16.6398 42.7397 15.9216 43.1672 15.0495L44.9883 16.5885C44.1504 17.7171 43.1415 18.5892 41.9616 19.2048C40.7817 19.8204 39.5248 20.1283 38.191 20.1283ZM34.7282 11.7662C34.7282 11.8688 34.7282 11.9543 34.7282 12.0227L40.7047 11.2019C40.585 10.1075 40.2345 9.22683 39.6531 8.55992C39.0717 7.89301 38.362 7.55956 37.5241 7.55956C36.652 7.55956 35.968 7.93577 35.4721 8.68818C34.9761 9.42349 34.7282 10.4495 34.7282 11.7662ZM47.2999 20.0513C47.2999 18.2558 47.2999 16.4431 47.2999 14.6134C47.317 12.7837 47.3255 11.0138 47.3255 9.30379C47.3426 7.59376 47.3597 6.00344 47.3768 4.53281C47.411 3.04509 47.4452 1.73692 47.4794 0.608302C48.4713 0.608302 49.3092 0.616852 49.9932 0.633952C50.6943 0.651053 51.3184 0.676704 51.8657 0.710904C51.8657 3.66925 51.8828 6.47369 51.917 9.12423C54.2426 9.10713 56.5939 9.02163 58.9708 8.86773C58.9708 7.60231 58.9708 6.28559 58.9708 4.91757C58.9708 3.54955 58.9708 2.14733 58.9708 0.710904C60.4585 0.608303 61.9634 0.557002 63.4853 0.557002C63.5366 1.97632 63.5793 3.53245 63.6135 5.22537C63.6477 6.9012 63.6648 8.61978 63.6648 10.3811C63.6819 12.1424 63.6905 13.8525 63.6905 15.5112C63.7076 17.1699 63.7161 18.6833 63.7161 20.0513C62.8269 20.0513 61.9805 20.0428 61.1768 20.0257C60.3901 20.0086 59.6035 19.9829 58.8169 19.9487C58.8511 19.0253 58.8768 17.8454 58.8939 16.4089C58.911 14.9554 58.9281 13.3309 58.9452 11.5354C57.3548 11.5354 55.9954 11.5268 54.8668 11.5097C53.7552 11.4755 52.7805 11.4328 51.9426 11.3815C51.9939 14.545 52.0709 17.4008 52.1735 19.9487C51.4211 19.9829 50.6515 20.0086 49.8649 20.0257C49.0783 20.0428 48.2233 20.0513 47.2999 20.0513ZM66.8138 3.9685V0.5057H71.1744V3.9685H66.8138ZM66.9164 20.0513C66.8993 19.487 66.8822 18.726 66.8651 17.7684C66.848 16.7937 66.8309 15.6822 66.8138 14.4339C66.8138 13.1684 66.8053 11.8175 66.7882 10.3811C66.7882 8.94468 66.7882 7.47406 66.7882 5.96923C67.5577 5.96923 68.3614 5.97778 69.1993 5.99489C70.0543 6.01199 70.7212 6.03764 71.2 6.07184C71.2 7.32016 71.1915 8.62833 71.1744 9.99635C71.1744 11.3644 71.1658 12.6982 71.1487 13.9978C71.1487 15.2803 71.1402 16.4431 71.1231 17.4863C71.106 18.5294 71.0889 19.3502 71.0718 19.9487C70.2852 19.9829 69.5328 20.0086 68.8146 20.0257C68.0963 20.0428 67.4636 20.0513 66.9164 20.0513ZM78.4196 20.2309C77.4449 17.9736 76.4616 15.6138 75.4698 13.1513C74.4951 10.6889 73.5888 8.32052 72.7509 6.04619C73.7769 5.89228 74.7174 5.77258 75.5724 5.68708C76.4274 5.58448 77.1628 5.51608 77.7784 5.48188C78.2743 7.32871 78.8471 9.24393 79.4969 11.2276C80.1468 13.1941 80.8479 15.1435 81.6003 17.0759C82.3698 15.1948 83.0794 13.271 83.7293 11.3045C84.3791 9.33799 84.9434 7.43131 85.4222 5.58448L88.1411 5.94358C87.2519 8.42312 86.3285 10.8599 85.3709 13.2539C84.4133 15.6309 83.4471 17.8881 82.4724 20.0257C81.8226 20.0941 81.1386 20.1454 80.4204 20.1796C79.7192 20.2138 79.0523 20.2309 78.4196 20.2309ZM95.704 20.1283C94.3189 20.1283 93.0705 19.8119 91.959 19.1792C90.8646 18.5294 89.9925 17.6573 89.3427 16.5628C88.71 15.4513 88.3936 14.1945 88.3936 12.7922C88.3936 11.39 88.7014 10.1417 89.317 9.04728C89.9497 7.95287 90.8048 7.0893 91.8821 6.45659C92.9765 5.82388 94.2163 5.50753 95.6014 5.50753C96.901 5.50753 98.0638 5.79823 99.0898 6.37964C100.133 6.94395 100.971 7.73911 101.604 8.76513C102.253 9.79114 102.638 10.9967 102.758 12.3818L92.5746 14.28C92.8995 15.3915 93.4125 16.2978 94.1137 16.9989C94.8148 17.6829 95.6014 18.0249 96.4735 18.0249C97.2772 18.0249 98.0724 17.7513 98.859 17.2041C99.6456 16.6398 100.253 15.9216 100.68 15.0495L102.501 16.5885C101.663 17.7171 100.655 18.5892 99.4746 19.2048C98.2947 19.8204 97.0378 20.1283 95.704 20.1283ZM92.2412 11.7662C92.2412 11.8688 92.2412 11.9543 92.2412 12.0227L98.2177 11.2019C98.098 10.1075 97.7475 9.22683 97.1661 8.55992C96.5846 7.89301 95.875 7.55956 95.0371 7.55956C94.165 7.55956 93.4809 7.93577 92.985 8.68818C92.4891 9.42349 92.2412 10.4495 92.2412 11.7662Z" fill="#F5D75E"/>
</svg>
